<svg width="11921" height="3351" viewBox="0 0 11921 3351" fill="none" xmlns="http://www.w3.org/2000/svg">
<g clip-path="url(#clip0_3082_53)">
<path d="M1106.64 2689.08C1170.52 2685.86 1271.17 2744.45 1339.31 2763.39C1578.3 2829.85 1836.35 2827.39 2069.49 2742.6C2134.49 2718.96 2203.41 2673.13 2272.89 2696.07C2375.97 2730.12 2324.54 2820.39 2370.66 2883.58C2439.62 2954.71 2613.67 2952.66 2561.05 3094.18C2538.03 3156.1 2334.73 3226.38 2269.76 3250.38C2212.68 3271.39 2154.03 3288.63 2094.26 3301.98C1734.61 3387.3 1354.22 3360.2 1013.26 3224.94C955.377 3201.91 898.75 3177.55 844.545 3148.43C793.144 3120.81 767.776 3077.54 784.189 3022.84C808.992 2940.18 910.536 2947.94 969.418 2893.12C1024.86 2841.5 985.085 2785.86 1025.21 2730.39C1043.7 2704.83 1075.17 2694.57 1106.64 2689.08Z" fill="url(#paint0_linear_3082_53)"/>
<path d="M1609.26 1.29611C1662.78 -1.17926 1714.44 0.247975 1767.91 2.59184C1996.47 13.8509 2220.02 68.4173 2424.48 162.853C2490.77 192.913 2579.84 225.394 2569.43 306.378C2550.99 449.798 2338.55 381.795 2347.67 551.184C2352.21 635.358 2255.36 688.667 2165.63 646.331C2032.96 583.727 1888.43 552.688 1738.1 541.723C1583.63 537.306 1449.33 551.23 1301.71 599.709C1245.97 618.015 1186.42 652.461 1129.23 660.967C1101.88 665.032 1063.86 654.175 1043.19 637.795C1005.14 607.649 1005.02 565.479 1001.2 523.943C994.346 429.291 887.324 424.615 819.9 378.875C771.394 344.831 768.397 269.15 807.41 228.071C821.978 213.021 841.341 202.803 860.262 193.129C1096.32 72.4437 1341.04 14.8023 1609.26 1.29611Z" fill="url(#paint1_linear_3082_53)"/>
<path d="M2981.62 808.131C3008.31 782.545 3050.25 774.109 3085.54 785.151C3123.73 797.085 3143.48 833.738 3161.34 869.391C3351.76 1249.37 3405.22 1718.29 3292.46 2135.32C3267.91 2226.17 3174.33 2517.25 3101.65 2558.24C3075.72 2572.87 3043.79 2573.94 3016.46 2563.16C2985.88 2551.1 2967.95 2527.95 2954.03 2496.98C2914.06 2416.56 2908.07 2346.7 2807.14 2347.11C2783.44 2347.21 2762.19 2342.44 2741.16 2331.89C2706.95 2314.73 2682.75 2259.12 2688.16 2219.51C2693.88 2177.62 2723.61 2127.2 2738.42 2084.36C2762.7 2014.15 2781.93 1949.02 2794.65 1875C2829.06 1674.59 2809.3 1468.39 2743.35 1278.04C2731.56 1236.32 2705.04 1196.93 2692.84 1155.92C2674.66 1094.82 2704.19 1027.62 2762.26 1010.49C2794.61 1000.94 2825.85 1007.75 2855.77 996.832C2912.59 976.14 2929.64 900.465 2954.53 849.104C2963.64 830.104 2971.84 817.505 2981.62 808.131Z" fill="url(#paint2_linear_3082_53)"/>
<path d="M207.223 834.618C236.74 782.966 315.099 763.612 360.725 801.788C410.344 843.304 412.393 934.584 467.859 982.541C519.466 1027.15 622.738 972.905 655.258 1080.38C673.174 1139.59 650.855 1171.7 628.892 1223.92C512.435 1500.9 509.795 1829.94 620.767 2109.46C644.547 2169.33 681.852 2215.53 650.298 2283.79C614.752 2360.71 551.994 2336.79 490.367 2355.96C445.622 2370 428.587 2424.07 410.76 2465.85C393.369 2506.37 374.754 2548.28 332.953 2563.88C306.351 2573.81 273.36 2571.85 248.15 2558.25C185.461 2524.43 103.944 2287.63 80.2761 2211.87C-50.2506 1787.72 -20.7113 1324.37 162.381 924.011C176.18 893.553 190.737 863.474 207.223 834.618Z" fill="url(#paint3_linear_3082_53)"/>
<path d="M2510.62 1211.42C2533.46 1211.06 2542.64 1211.5 2557.19 1231.02C2577.08 1257.71 2589.31 1292.32 2600.79 1323.4C2652.29 1462.83 2676.6 1616.67 2660.84 1764.95C2649.86 1872.59 2629.17 1961.44 2586.18 2061.26C2575.6 2085.81 2561.65 2122.53 2540.88 2139.5C2537.84 2139.8 2534.78 2139.98 2531.72 2140.07C2501.5 2140.72 2485.25 2115.16 2495.61 2091.14C2545.05 1976.49 2577.17 1882.23 2588.85 1755.84C2596.71 1661.73 2590.32 1566.98 2569.89 1474.78C2558.33 1423.73 2542.45 1373.77 2522.45 1325.41C2505.98 1285.79 2469.8 1243.9 2510.62 1211.42Z" fill="#F2C247"/>
<path d="M695.075 1539.28C703.014 1480.87 761.116 1203.07 831.232 1206.83C846.006 1213.36 850.448 1221.55 857.456 1236.13C858.96 1266.42 825.261 1331.82 812.876 1365.46C802.91 1393.06 793.985 1421.02 786.113 1449.28C761.099 1541.22 754.909 1669.12 762.477 1764.24C769.527 1845.07 787.993 1924.5 817.335 2000.14C832.838 2040.15 873.035 2102.28 846.09 2139.18C765.629 2179.87 701.164 1861.31 695.067 1805.73C681.847 1752.17 683.562 1593.35 695.075 1539.28Z" fill="#F2C247"/>
<path d="M1237.25 2489.17C1256.28 2489.95 1275.65 2499.92 1292.79 2508.15C1425.54 2571.89 1570.13 2595.65 1716.64 2590.56C1794.75 2587.49 1872.11 2574.11 1946.71 2550.74C1965.37 2544.99 1984.24 2537.98 2003.33 2531.68C2024.58 2524.67 2092.75 2485.05 2112.17 2490.86C2144.77 2500.61 2151.74 2537.77 2117.88 2558.74C1904.58 2659.37 1694.94 2689.9 1460.95 2639.4C1382.49 2616.87 1272.52 2595.94 1213.83 2537.14C1197.19 2520.48 1221.53 2497.84 1237.25 2489.17Z" fill="#F2C247"/>
<path d="M1609.2 688.655C1616.08 688.309 1622.96 688.01 1629.84 687.753C1785.62 681.862 1988.05 715.069 2130.4 799.199C2144.35 807.439 2141.02 843.594 2126.33 852.842C2091.51 874.761 2041.78 827.789 2007.81 818.352C1919.59 785.385 1840.01 768.29 1747.11 759.839C1565.71 748.467 1420.23 777.672 1260.12 856.54C1252.78 860.154 1234.43 860.242 1227.5 854.541C1171.26 808.27 1250.75 779.532 1286.79 765.68C1390.42 721.416 1497.42 695.819 1609.2 688.655Z" fill="#F2C247"/>
<path d="M1920.28 2154.71H1436.08C1416.23 2154.71 1399.77 2138.25 1399.77 2118.4C1399.77 2098.55 1416.23 2082.08 1436.08 2082.08H1920.28C1940.13 2082.08 1956.6 2098.55 1956.6 2118.4C1956.6 2138.25 1940.13 2154.71 1920.28 2154.71Z" fill="#F2C247"/>
<path d="M2082.49 1356.71L1888.81 1495.19C1863.15 1513.59 1826.35 1502.45 1815.21 1472.92L1723.7 1228.88C1708.2 1186.75 1648.65 1186.75 1633.15 1228.88L1541.15 1472.43C1530.02 1502.45 1493.7 1513.59 1468.04 1494.7L1274.36 1356.22C1235.62 1329.11 1184.3 1367.36 1200.28 1412.39L1401.7 1976.48C1408.48 1995.85 1426.88 2008.44 1447.22 2008.44H1908.66C1929 2008.44 1947.4 1995.37 1954.18 1976.48L2155.6 1412.39C2172.07 1367.36 2120.74 1329.11 2082.49 1356.71ZM1799.23 1803.63H1557.13C1537.28 1803.63 1520.82 1787.16 1520.82 1767.31C1520.82 1747.46 1537.28 1731 1557.13 1731H1799.23C1819.08 1731 1835.55 1747.46 1835.55 1767.31C1835.55 1787.16 1819.08 1803.63 1799.23 1803.63Z" fill="#F2C247"/>
</g>
<path d="M5186.57 1144.83V1378.21H4905.33V2199.5H4612.11V1378.21H4333.86V1144.83H5186.57ZM5685.5 2209.97C5601.73 2209.97 5526.43 2192.52 5459.61 2157.61C5393.79 2122.71 5341.93 2072.84 5304.03 2008.01C5266.13 1943.19 5247.18 1866.89 5247.18 1779.13C5247.18 1692.36 5266.13 1616.57 5304.03 1551.74C5342.92 1486.91 5395.28 1437.05 5461.11 1402.14C5527.93 1367.24 5603.23 1349.78 5687 1349.78C5770.78 1349.78 5845.57 1367.24 5911.4 1402.14C5978.22 1437.05 6030.58 1486.91 6068.48 1551.74C6107.37 1616.57 6126.82 1692.36 6126.82 1779.13C6126.82 1865.9 6107.37 1942.19 6068.48 2008.01C6030.58 2072.84 5978.22 2122.71 5911.4 2157.61C5844.58 2192.52 5769.28 2209.97 5685.5 2209.97ZM5685.5 1955.65C5726.39 1955.65 5760.3 1940.7 5787.23 1910.78C5815.16 1879.86 5829.12 1835.98 5829.12 1779.13C5829.12 1722.28 5815.16 1678.9 5787.23 1648.98C5760.3 1619.06 5726.89 1604.1 5687 1604.1C5647.11 1604.1 5613.7 1619.06 5586.77 1648.98C5559.84 1678.9 5546.38 1722.28 5546.38 1779.13C5546.38 1836.97 5559.34 1880.86 5585.27 1910.78C5611.2 1940.7 5644.61 1955.65 5685.5 1955.65ZM6771.2 2199.5L6539.32 1855.42V2199.5H6246.11V1092.47H6539.32V1689.37L6771.2 1360.25H7122.76L6792.15 1782.12L7128.74 2199.5H6771.2ZM8016.55 1770.15C8016.55 1793.09 8015.05 1816.03 8012.06 1838.97H7457.05C7460.04 1884.85 7472.51 1919.25 7494.45 1942.19C7517.39 1964.13 7546.31 1975.1 7581.22 1975.1C7630.09 1975.1 7664.99 1953.16 7685.94 1909.28H7998.6C7985.63 1967.12 7960.2 2018.98 7922.3 2064.86C7885.4 2109.74 7838.53 2145.15 7781.68 2171.08C7724.83 2197.01 7662 2209.97 7593.19 2209.97C7510.41 2209.97 7436.61 2192.52 7371.78 2157.61C7307.95 2122.71 7257.59 2072.84 7220.69 2008.01C7184.78 1943.19 7166.83 1866.89 7166.83 1779.13C7166.83 1691.36 7184.78 1615.57 7220.69 1551.74C7256.59 1486.91 7306.46 1437.05 7370.28 1402.14C7435.11 1367.24 7509.41 1349.78 7593.19 1349.78C7675.96 1349.78 7749.27 1366.74 7813.1 1400.65C7876.92 1434.55 7926.79 1483.42 7962.69 1547.25C7998.6 1610.08 8016.55 1684.38 8016.55 1770.15ZM7717.35 1696.85C7717.35 1660.95 7705.38 1633.02 7681.45 1613.07C7657.51 1592.13 7627.59 1581.66 7591.69 1581.66C7555.79 1581.66 7526.37 1591.63 7503.43 1611.58C7480.49 1630.53 7465.53 1658.95 7458.55 1696.85H7717.35ZM8685.57 1352.77C8782.31 1352.77 8859.1 1385.19 8915.95 1450.01C8972.8 1513.84 9001.22 1600.61 9001.22 1710.31V2199.5H8708.01V1749.21C8708.01 1701.34 8695.54 1663.94 8670.61 1637.01C8645.68 1609.09 8612.27 1595.12 8570.38 1595.12C8526.5 1595.12 8492.09 1609.09 8467.15 1637.01C8442.22 1663.94 8429.76 1701.34 8429.76 1749.21V2199.5H8136.54V1360.25H8429.76V1479.93C8455.69 1442.03 8490.59 1411.62 8534.47 1388.68C8578.36 1364.74 8628.72 1352.77 8685.57 1352.77Z" fill="#F3F3FF"/>
<path d="M10121.6 1657.95C10183.5 1671.92 10232.3 1702.83 10268.2 1750.71C10305.1 1797.58 10323.6 1851.43 10323.6 1912.27C10323.6 2002.03 10292.7 2072.34 10230.8 2123.2C10169 2174.07 10082.2 2199.5 9970.55 2199.5H9448.45V1144.83H9954.09C10061.8 1144.83 10146.1 1168.77 10206.9 1216.64C10268.7 1264.51 10299.7 1331.83 10299.7 1418.6C10299.7 1480.43 10283.2 1532.29 10250.3 1574.18C10218.4 1615.07 10175.5 1642.99 10121.6 1657.95ZM9741.66 1563.71H9889.76C9963.57 1563.71 10000.5 1533.29 10000.5 1472.45C10000.5 1409.62 9963.57 1378.21 9889.76 1378.21H9741.66V1563.71ZM9912.2 1963.13C9986.01 1963.13 10022.9 1932.22 10022.9 1870.38C10022.9 1838.47 10012.9 1814.04 9992.99 1797.08C9974.04 1780.13 9946.61 1771.65 9910.71 1771.65H9741.66V1963.13H9912.2ZM11253.9 1770.15C11253.9 1793.09 11252.5 1816.03 11249.5 1838.97H10694.5C10697.4 1884.85 10709.9 1919.25 10731.8 1942.19C10754.8 1964.13 10783.7 1975.1 10818.6 1975.1C10867.5 1975.1 10902.4 1953.16 10923.3 1909.28H11236C11223 1967.12 11197.6 2018.98 11159.7 2064.86C11122.8 2109.74 11075.9 2145.15 11019.1 2171.08C10962.2 2197.01 10899.4 2209.97 10830.6 2209.97C10747.8 2209.97 10674 2192.52 10609.2 2157.61C10545.4 2122.71 10495 2072.84 10458.1 2008.01C10422.2 1943.19 10404.2 1866.89 10404.2 1779.13C10404.2 1691.36 10422.2 1615.57 10458.1 1551.74C10494 1486.91 10543.9 1437.05 10607.7 1402.14C10672.5 1367.24 10746.8 1349.78 10830.6 1349.78C10913.4 1349.78 10986.7 1366.74 11050.5 1400.65C11114.3 1434.55 11164.2 1483.42 11200.1 1547.25C11236 1610.08 11253.9 1684.38 11253.9 1770.15ZM10954.8 1696.85C10954.8 1660.95 10942.8 1633.02 10918.8 1613.07C10894.9 1592.13 10865 1581.66 10829.1 1581.66C10793.2 1581.66 10763.8 1591.63 10740.8 1611.58C10717.9 1630.53 10702.9 1658.95 10695.9 1696.85H10954.8ZM11869.1 1949.67V2199.5H11742C11527.5 2199.5 11420.3 2093.29 11420.3 1880.86V1604.1H11317.1V1360.25H11420.3V1156.8H11715V1360.25H11867.6V1604.1H11715V1885.34C11715 1908.28 11720 1924.74 11730 1934.71C11741 1944.68 11758.9 1949.67 11783.8 1949.67H11869.1Z" fill="#F54E0A"/>
<defs>
<linearGradient id="paint0_linear_3082_53" x1="1675.53" y1="2782.57" x2="1675.02" y2="3350.78" gradientUnits="userSpaceOnUse">
<stop stop-color="#F54F0A"/>
<stop offset="1" stop-color="#E90F08"/>
</linearGradient>
<linearGradient id="paint1_linear_3082_53" x1="1795.16" y1="568.473" x2="1855" y2="-8.63236e-07" gradientUnits="userSpaceOnUse">
<stop stop-color="#F54F0A"/>
<stop offset="1" stop-color="#E90F08"/>
</linearGradient>
<linearGradient id="paint2_linear_3082_53" x1="2782.54" y1="1765.24" x2="3351.01" y2="1765.24" gradientUnits="userSpaceOnUse">
<stop stop-color="#F54F0A"/>
<stop offset="1" stop-color="#E90F08"/>
</linearGradient>
<linearGradient id="paint3_linear_3082_53" x1="538.554" y1="1675.52" x2="-1.87535e-05" y2="1675.52" gradientUnits="userSpaceOnUse">
<stop stop-color="#F54F0A"/>
<stop offset="1" stop-color="#E90F08"/>
</linearGradient>
<clipPath id="clip0_3082_53">
<rect width="3351" height="3351" fill="white"/>
</clipPath>
</defs>
</svg>
